<?xml version="1.0" encoding="iso-8859-1"?>
<!-- Generator: Adobe Illustrator 27.4.1, SVG Export Plug-In . SVG Version: 6.00 Build 0)  -->
<svg version="1.1" baseProfile="basic" id="Layer_1"
	 xmlns="http://www.w3.org/2000/svg" xmlns:xlink="http://www.w3.org/1999/xlink" x="0px" y="0px" viewBox="0 0 48 48"
	 xml:space="preserve">
<path d="M45,11.577c-0.004-0.224-0.083-0.446-0.235-0.627c-0.228-0.27-0.576-0.386-0.915-0.335c0.027-0.096,0.039-0.194,0.037-0.291
	c-0.005-0.29,0.004-1.871,0.005-1.971c0.002-0.301-0.133-0.593-0.377-0.787c-0.324-0.26-0.776-0.29-1.132-0.078
	c-1.374,0.812-2.846,1.402-4.381,1.758c-1.697-1.596-3.966-2.5-6.311-2.5c-5.077,0-9.208,4.131-9.208,9.208
	c0,0.259,0.011,0.517,0.032,0.774c-5.826-0.621-11.224-3.534-14.956-8.114C7.352,8.359,7.02,8.223,6.706,8.249
	C6.378,8.275,6.085,8.46,5.92,8.743c-0.816,1.404-1.248,3.006-1.248,4.633c0,0.325,0,1.652,0,2c0,1.008,0.18,1.986,0.49,2.914
	c-0.021,0.01-0.043,0.015-0.063,0.026c-0.306,0.18-0.493,0.508-0.493,0.862v0.105c0,0.482,0,1.725,0,1.895v0.105
	c0,2.669,1.169,5.115,3.048,6.818c0.071,0.194,0.142,0.388,0.224,0.576c-0.052,0.039-0.103,0.08-0.147,0.13
	c-0.234,0.265-0.312,0.633-0.204,0.97c0.674,2.097,2.058,3.817,3.829,4.946c-2.265,0.84-4.729,1.145-7.24,0.852
	c-0.447-0.056-0.9,0.219-1.057,0.657C3.022,36.334,3.003,36.438,3,36.542c-0.01,0.343,0,1.913,0,2.025
	C2.999,38.9,3.166,39.222,3.46,39.41c3.923,2.515,8.459,3.844,13.117,3.844c15.244,0,24.354-12.378,24.354-24.345
	c0-0.194-0.002-0.386-0.007-0.576c1.519-1.168,2.832-2.573,3.907-4.183c0.11-0.164,0.165-0.35,0.169-0.537
	C45.004,13.377,45.003,11.776,45,11.577z"/>
<g>
	<path style="fill:#FFFFFF;" d="M44,11.595c-1.474,0.655-3.057,1.091-4.716,1.293c1.694-1.016,2.996-2.626,3.607-4.54
		c-1.584,0.937-3.343,1.623-5.213,1.988c-1.496-1.597-3.625-2.591-5.987-2.591c-4.531,0-8.209,3.673-8.209,8.209
		c0,0.642,0.075,1.267,0.216,1.87c-6.818-0.343-12.867-3.612-16.914-8.578c-0.708,1.219-1.113,2.626-1.113,4.131
		c0,2.846,1.447,5.358,3.651,6.832c-1.346-0.044-2.609-0.414-3.717-1.029c0,0.035,0,0.066,0,0.106c0,3.977,2.829,7.289,6.581,8.046
		c-0.686,0.189-1.412,0.29-2.16,0.29c-0.532,0-1.047-0.053-1.548-0.15c1.047,3.255,4.078,5.635,7.667,5.701
		c-2.807,2.199-6.343,3.51-10.192,3.51c-0.664,0-1.315-0.04-1.953-0.114c3.629,2.327,7.945,3.686,12.577,3.686
		c15.097,0,23.354-12.506,23.354-23.345c0-0.361-0.009-0.713-0.026-1.065C41.51,14.687,42.9,13.24,44,11.595z"/>
	<path d="M16.577,41.254c-4.658,0-9.194-1.329-13.117-3.844c-0.392-0.251-0.559-0.739-0.401-1.178
		c0.156-0.438,0.613-0.714,1.057-0.657c3.329,0.388,6.573-0.271,9.381-1.838c-2.783-0.89-5.042-3.075-5.97-5.96
		c-0.108-0.337-0.03-0.705,0.204-0.97c0.112-0.128,0.254-0.222,0.408-0.277c-2.168-1.705-3.533-4.35-3.533-7.246v-0.105
		c0-0.354,0.188-0.683,0.493-0.862c0.306-0.179,0.684-0.184,0.993-0.012c0.003,0.002,0.007,0.004,0.01,0.006
		c-0.921-1.453-1.43-3.157-1.43-4.935c0-1.627,0.432-3.229,1.248-4.633C6.085,8.46,6.378,8.275,6.706,8.249
		C7.02,8.225,7.352,8.359,7.56,8.614c3.732,4.58,9.13,7.493,14.956,8.114c-0.021-0.258-0.032-0.516-0.032-0.774
		c0-5.077,4.131-9.208,9.208-9.208c2.345,0,4.613,0.904,6.311,2.5c1.535-0.355,3.007-0.945,4.381-1.758
		c0.355-0.212,0.808-0.182,1.132,0.078c0.325,0.259,0.456,0.691,0.329,1.087c-0.274,0.86-0.674,1.67-1.18,2.404
		c0.314-0.115,0.625-0.241,0.93-0.377c0.407-0.179,0.885-0.07,1.171,0.27c0.287,0.341,0.314,0.83,0.066,1.2
		c-1.075,1.609-2.389,3.015-3.907,4.183c0.005,0.19,0.007,0.382,0.007,0.576C40.931,28.876,31.821,41.254,16.577,41.254z
		 M8.05,37.561c2.69,1.114,5.583,1.693,8.527,1.693c15.418,0,22.354-13.066,22.354-22.345c0-0.345-0.009-0.68-0.025-1.015
		c-0.017-0.339,0.14-0.663,0.414-0.861c0.604-0.435,1.173-0.911,1.706-1.425c-0.849-0.096-2.207-0.526-2.207-0.526
		S40,12,40.502,10.584c-0.855,0.313-1.734,0.56-2.632,0.734c-0.337,0.068-0.686-0.046-0.921-0.298
		c-1.375-1.467-3.242-2.274-5.258-2.274c-3.975,0-7.208,3.233-7.208,7.208c0,0.553,0.063,1.105,0.188,1.644
		c0.071,0.306-0.005,0.627-0.206,0.868c-0.201,0.24-0.491,0.369-0.818,0.357c-6.33-0.319-12.295-3.122-16.599-7.751
		c-0.248,0.739-0.377,1.518-0.377,2.304c0,2.415,1.199,4.658,3.207,6.001c0.371,0.248,0.533,0.712,0.396,1.137
		s-0.53,0.735-0.984,0.693c-0.872-0.028-1.718-0.175-2.53-0.438c0.585,2.765,2.771,5.006,5.623,5.581
		c0.454,0.092,0.786,0.482,0.802,0.945c0.017,0.463-0.287,0.876-0.733,0.999c-0.766,0.212-1.562,0.321-2.369,0.326
		c1.254,2.128,3.539,3.505,6.081,3.552c0.423,0.008,0.795,0.281,0.93,0.683s0.002,0.844-0.331,1.104
		C14.208,35.961,11.229,37.187,8.05,37.561z"/>
</g>
</svg>